<?xml version="1.0" standalone="no"?>
<!DOCTYPE svg PUBLIC "-//W3C//DTD SVG 20010904//EN"
 "http://www.w3.org/TR/2001/REC-SVG-20010904/DTD/svg10.dtd">
<svg version="1.0" xmlns="http://www.w3.org/2000/svg"
 width="257.000000pt" height="204.000000pt" viewBox="0 0 257.000000 204.000000"
 preserveAspectRatio="xMidYMid meet">

<g transform="translate(0.000000,204.000000) scale(0.100000,-0.100000)"
fill="#000000" stroke="none">
<path d="M1065 1563 c-180 -24 -365 -151 -447 -308 -54 -105 -72 -175 -71
-285 0 -138 36 -246 119 -363 36 -50 42 -63 22 -51 -7 4 -8 3 -4 -5 9 -14 26
-5 26 14 0 14 45 29 60 20 6 -4 10 -2 10 3 0 13 103 34 125 26 12 -5 16 -4 12
3 -4 7 26 16 81 26 103 19 223 30 177 18 -25 -7 -27 -9 -7 -10 13 0 35 5 50
13 20 10 80 13 236 14 114 0 213 5 218 10 5 5 21 42 35 83 34 97 42 235 19
333 -69 294 -363 499 -661 459z m15 -283 c0 -5 -11 -12 -25 -16 -24 -6 -25 -8
-25 -100 0 -76 3 -94 15 -94 16 0 164 168 165 188 0 6 -9 12 -20 12 -11 0 -20
5 -20 10 0 6 33 10 80 10 44 0 80 -3 80 -7 0 -5 -17 -16 -38 -26 -21 -10 -68
-55 -110 -103 -84 -99 -89 -74 43 -217 47 -52 93 -92 112 -99 18 -7 33 -16 33
-20 0 -4 -43 -8 -95 -8 -52 0 -95 3 -95 6 0 4 7 12 16 19 15 10 13 16 -17 51
-52 62 -133 144 -141 144 -4 0 -8 -43 -8 -95 0 -93 1 -95 25 -101 52 -13 22
-24 -65 -24 -86 0 -117 11 -66 24 13 3 26 16 30 28 7 29 8 346 0 375 -3 12
-17 24 -30 27 -53 14 -21 26 66 26 52 0 90 -4 90 -10z"/>
<path d="M1708 663 c7 -3 16 -2 19 1 4 3 -2 6 -13 5 -11 0 -14 -3 -6 -6z"/>
<path d="M1900 646 c0 -2 9 -6 20 -9 11 -3 18 -1 14 4 -5 9 -34 13 -34 5z"/>
<path d="M1956 635 c4 -8 8 -15 10 -15 2 0 4 7 4 15 0 8 -4 15 -10 15 -5 0 -7
-7 -4 -15z"/>
<path d="M2015 631 c-3 -5 -2 -12 3 -15 5 -3 9 1 9 9 0 17 -3 19 -12 6z"/>
<path d="M1880 601 c0 -8 -7 -11 -15 -7 -8 3 -15 1 -15 -4 0 -6 6 -10 14 -10
17 0 31 18 22 27 -3 4 -6 1 -6 -6z"/>
<path d="M800 579 c-12 -9 -12 -10 4 -5 11 4 23 1 28 -6 7 -10 9 -10 6 1 -6
20 -20 23 -38 10z"/>
<path d="M1896 582 c-3 -5 1 -9 9 -9 8 0 12 4 9 9 -3 4 -7 8 -9 8 -2 0 -6 -4
-9 -8z"/>
<path d="M2030 565 c0 -8 4 -15 10 -15 5 0 7 7 4 15 -4 8 -8 15 -10 15 -2 0
-4 -7 -4 -15z"/>
<path d="M2270 558 c16 -18 23 -19 33 -9 9 10 9 11 -4 6 -10 -4 -19 0 -22 9
-4 9 -11 16 -17 16 -6 0 -2 -10 10 -22z"/>
<path d="M725 559 c-11 -16 -1 -19 13 -3 7 8 8 14 3 14 -5 0 -13 -5 -16 -11z"/>
<path d="M1245 559 c-3 -3 3 -13 13 -20 15 -12 16 -12 5 2 -11 14 -9 16 18 17
17 0 33 3 36 6 3 3 -11 5 -31 4 -20 -1 -39 -5 -41 -9z"/>
<path d="M648 538 c-7 -17 15 -19 29 -3 4 4 3 5 -4 2 -6 -4 -13 -2 -15 5 -3 8
-6 6 -10 -4z"/>
<path d="M2098 543 c7 -3 16 -2 19 1 4 3 -2 6 -13 5 -11 0 -14 -3 -6 -6z"/>
<path d="M2240 530 c-9 -6 -10 -10 -3 -10 6 0 15 5 18 10 8 12 4 12 -15 0z"/>
<path d="M610 519 c0 -5 5 -7 10 -4 6 3 10 8 10 11 0 2 -4 4 -10 4 -5 0 -10
-5 -10 -11z"/>
<path d="M565 510 c-3 -5 -1 -10 4 -10 6 0 11 5 11 10 0 6 -2 10 -4 10 -3 0
-8 -4 -11 -10z"/>
<path d="M1452 511 c0 -3 -1 -8 -2 -11 -7 -20 -7 -39 2 -34 5 3 7 9 4 12 -3 3
1 13 9 22 13 14 13 17 1 17 -8 0 -15 -3 -14 -6z"/>
<path d="M861 467 c-8 -10 -7 -14 2 -14 8 0 14 6 14 14 0 7 -1 13 -2 13 -2 0
-8 -6 -14 -13z"/>
<path d="M903 425 c-4 -5 -3 -7 2 -3 4 4 15 3 25 -2 11 -6 17 -5 17 3 0 15
-36 17 -44 2z"/>
<path d="M1022 425 c4 -4 3 -14 -3 -21 -7 -9 -6 -14 3 -20 7 -4 10 -4 6 1 -4
4 -3 14 3 21 7 9 6 14 -3 20 -7 4 -10 4 -6 -1z"/>
<path d="M964 409 c-4 -7 -3 -9 4 -5 5 3 13 0 15 -6 4 -9 6 -10 6 -1 1 17 -16
25 -25 12z"/>
<path d="M1268 393 c7 -3 16 -2 19 1 4 3 -2 6 -13 5 -11 0 -14 -3 -6 -6z"/>
</g>
</svg>
